<svg width="33" height="32" viewBox="0 0 33 32" fill="none" xmlns="http://www.w3.org/2000/svg">
<path d="M9.58953 13.8023L10.5795 13.9438L10.5795 13.9438L9.58953 13.8023ZM9.56808 13.9524L8.57813 13.811L8.57813 13.811L9.56808 13.9524ZM24.1997 13.8023L25.1897 13.6609L25.1897 13.6609L24.1997 13.8023ZM24.2212 13.9524L23.2312 14.0939L23.2312 14.0939L24.2212 13.9524ZM21.1613 26.6667V27.6667C21.7136 27.6667 22.1613 27.2189 22.1613 26.6667H21.1613ZM12.628 26.6667H11.628C11.628 27.2189 12.0757 27.6667 12.628 27.6667V26.6667ZM11.0397 19.5262L11.8305 18.9141L11.8305 18.9141L11.0397 19.5262ZM22.7496 19.5262L21.9588 18.9141L21.9588 18.9141L22.7496 19.5262ZM13.6947 30.9333V31.9333H20.0947V30.9333V29.9333H13.6947V30.9333ZM9.58953 13.8023L8.59958 13.6609L8.57813 13.811L9.56808 13.9524L10.558 14.0939L10.5795 13.9438L9.58953 13.8023ZM16.8946 7.46667V6.46667C12.7247 6.46667 9.1893 9.53288 8.59958 13.6609L9.58953 13.8023L10.5795 13.9438C11.0284 10.801 13.72 8.46667 16.8946 8.46667V7.46667ZM24.1997 13.8023L25.1897 13.6609C24.5999 9.53289 21.0646 6.46667 16.8946 6.46667V7.46667V8.46667C20.0693 8.46667 22.7608 10.801 23.2098 13.9438L24.1997 13.8023ZM24.2212 13.9524L25.2111 13.811L25.1897 13.6609L24.1997 13.8023L23.2098 13.9438L23.2312 14.0939L24.2212 13.9524ZM22.7496 19.5262L23.5404 20.1382C24.8731 18.4163 25.5481 16.1699 25.2111 13.811L24.2212 13.9524L23.2312 14.0939C23.4882 15.8928 22.9758 17.6001 21.9588 18.9141L22.7496 19.5262ZM21.1613 23.2561H20.1613V26.6667H21.1613H22.1613V23.2561H21.1613ZM21.1613 26.6667V25.6667H12.628V26.6667V27.6667H21.1613V26.6667ZM12.628 26.6667H13.628V23.2562H12.628H11.628V26.6667H12.628ZM9.56808 13.9524L8.57813 13.811C8.24115 16.1699 8.91612 18.4164 10.2489 20.1383L11.0397 19.5262L11.8305 18.9141C10.8134 17.6001 10.301 15.8928 10.558 14.0939L9.56808 13.9524ZM12.628 23.2562H13.628C13.628 21.5219 12.7059 20.0451 11.8305 18.9141L11.0397 19.5262L10.2489 20.1383C11.0686 21.1973 11.628 22.221 11.628 23.2562H12.628ZM22.7496 19.5262L21.9588 18.9141C21.0834 20.0451 20.1613 21.5219 20.1613 23.2561H21.1613H22.1613C22.1613 22.2209 22.7207 21.1973 23.5404 20.1382L22.7496 19.5262ZM16.8947 0H15.8947V4.26667H16.8947H17.8947V0H16.8947ZM0.894653 16V17H5.16132V16V15H0.894653V16ZM28.628 16V17H32.8947V16V15H28.628V16ZM7.29465 8.53333L8.00176 7.82623L4.80176 4.62623L4.09465 5.33333L3.38755 6.04044L6.58755 9.24044L7.29465 8.53333ZM26.4947 8.53333L27.2018 9.24044L30.4018 6.04044L29.6947 5.33333L28.9875 4.62623L25.7875 7.82623L26.4947 8.53333Z" fill="black"/>
</svg>
