<svg width="25" height="24" viewBox="0 0 25 24" fill="none" xmlns="http://www.w3.org/2000/svg">
<path d="M8.49461 14.1L8.19461 13.7L7.39461 14.3L7.69461 14.7L8.49461 14.1ZM18.0946 14.7L18.3946 14.3L17.5946 13.7L17.2946 14.1L18.0946 14.7ZM12.8946 23.2V22.7C6.98516 22.7 2.19461 17.9095 2.19461 12H1.69461H1.19461C1.19461 18.4618 6.43288 23.7 12.8946 23.7V23.2ZM24.0946 12H23.5946C23.5946 17.9095 18.8041 22.7 12.8946 22.7V23.2V23.7C19.3563 23.7 24.5946 18.4618 24.5946 12H24.0946ZM12.8946 0.800049V1.30005C18.8041 1.30005 23.5946 6.0906 23.5946 12H24.0946H24.5946C24.5946 5.53832 19.3563 0.300049 12.8946 0.300049V0.800049ZM12.8946 0.800049V0.300049C6.43288 0.300049 1.19461 5.53832 1.19461 12H1.69461H2.19461C2.19461 6.0906 6.98516 1.30005 12.8946 1.30005V0.800049ZM7.29461 8.80005V9.30005H8.89461V8.80005V8.30005H7.29461V8.80005ZM16.8946 8.80005V9.30005H18.4946V8.80005V8.30005H16.8946V8.80005ZM17.6946 14.4L17.2946 14.1C15.0946 17.0334 10.6946 17.0334 8.49461 14.1L8.09461 14.4L7.69461 14.7C10.2946 18.1667 15.4946 18.1667 18.0946 14.7L17.6946 14.4Z" fill="black"/>
</svg>
