<svg width="25" height="24" viewBox="0 0 25 24" fill="none" xmlns="http://www.w3.org/2000/svg">
<path d="M12.0946 5.60002H24.8946M12.0946 18.4H24.8946M3.29464 2.40002H6.49464C7.3783 2.40002 8.09464 3.11637 8.09464 4.00002V7.20002C8.09464 8.08368 7.3783 8.80002 6.49464 8.80002H3.29464C2.41099 8.80002 1.69464 8.08368 1.69464 7.20002V4.00002C1.69464 3.11637 2.41099 2.40002 3.29464 2.40002ZM3.29464 15.2H6.49464C7.3783 15.2 8.09464 15.9164 8.09464 16.8V20C8.09464 20.8837 7.3783 21.6 6.49464 21.6H3.29464C2.41099 21.6 1.69464 20.8837 1.69464 20V16.8C1.69464 15.9164 2.41099 15.2 3.29464 15.2Z" stroke="black"/>
</svg>
