<svg width="25" height="24" viewBox="0 0 25 24" fill="none" xmlns="http://www.w3.org/2000/svg">
<path d="M7.41581 10.3518L7.91078 10.4225L7.91078 10.4225L7.41581 10.3518ZM7.39973 10.4643L6.90475 10.3936L6.90475 10.3936L7.39973 10.4643ZM18.3735 10.3518L18.8684 10.281L18.8684 10.281L18.3735 10.3518ZM18.3895 10.4643L17.8946 10.535L17.8946 10.535L18.3895 10.4643ZM16.0947 20V20.5C16.3708 20.5 16.5947 20.2761 16.5947 20H16.0947ZM9.69465 20H9.19465C9.19465 20.2761 9.41851 20.5 9.69465 20.5V20ZM8.50343 14.6447L8.89883 14.3386L8.89883 14.3386L8.50343 14.6447ZM17.2859 14.6446L16.8905 14.3386L16.8905 14.3386L17.2859 14.6446ZM10.4947 23.2V23.7H15.2947V23.2V22.7H10.4947V23.2ZM7.41581 10.3518L6.92083 10.281L6.90475 10.3936L7.39973 10.4643L7.8947 10.535L7.91078 10.4225L7.41581 10.3518ZM12.8946 5.6V5.1C9.89159 5.1 7.34553 7.30818 6.92083 10.281L7.41581 10.3518L7.91078 10.4225C8.2651 7.94225 10.3892 6.1 12.8946 6.1V5.6ZM18.3735 10.3518L18.8684 10.281C18.4437 7.30818 15.8977 5.1 12.8946 5.1V5.6V6.1C15.4 6.1 17.5242 7.94225 17.8785 10.4225L18.3735 10.3518ZM18.3895 10.4643L18.8845 10.3936L18.8684 10.281L18.3735 10.3518L17.8785 10.4225L17.8946 10.535L18.3895 10.4643ZM17.2859 14.6446L17.6813 14.9507C18.6414 13.7102 19.1272 12.0928 18.8845 10.3936L18.3895 10.4643L17.8946 10.535C18.0973 11.9543 17.6927 13.3021 16.8905 14.3386L17.2859 14.6446ZM16.0947 17.4421H15.5947V20H16.0947H16.5947V17.4421H16.0947ZM16.0947 20V19.5H9.69465V20V20.5H16.0947V20ZM9.69465 20H10.1947V17.4421H9.69465H9.19465V20H9.69465ZM7.39973 10.4643L6.90475 10.3936C6.66201 12.0928 7.14792 13.7102 8.10803 14.9507L8.50343 14.6447L8.89883 14.3386C8.09657 13.3021 7.69195 11.9543 7.8947 10.535L7.39973 10.4643ZM9.69465 17.4421H10.1947C10.1947 16.2288 9.54841 15.1779 8.89883 14.3386L8.50343 14.6447L8.10803 14.9507C8.72977 15.754 9.19465 16.5784 9.19465 17.4421H9.69465ZM17.2859 14.6446L16.8905 14.3386C16.2409 15.1778 15.5947 16.2288 15.5947 17.4421H16.0947H16.5947C16.5947 16.5783 17.0595 15.7539 17.6813 14.9507L17.2859 14.6446ZM12.8947 0H12.3947V3.2H12.8947H13.3947V0H12.8947ZM0.894653 12V12.5H4.09465V12V11.5H0.894653V12ZM21.6947 12V12.5H24.8947V12V11.5H21.6947V12ZM5.69465 6.4L6.04821 6.04645L3.64821 3.64645L3.29465 4L2.9411 4.35355L5.3411 6.75355L5.69465 6.4ZM20.0947 6.4L20.4482 6.75355L22.8482 4.35355L22.4947 4L22.1411 3.64645L19.7411 6.04645L20.0947 6.4Z" fill="black"/>
</svg>
