<svg width="33" height="32" viewBox="0 0 33 32" fill="none" xmlns="http://www.w3.org/2000/svg">
<path d="M15.828 7.46662H32.8946M15.828 24.5333H32.8946M4.09464 3.19995H8.3613C9.53951 3.19995 10.4946 4.15508 10.4946 5.33328V9.59995C10.4946 10.7782 9.53951 11.7333 8.3613 11.7333H4.09464C2.91643 11.7333 1.9613 10.7782 1.9613 9.59995V5.33328C1.9613 4.15508 2.91643 3.19995 4.09464 3.19995ZM4.09464 20.2666H8.3613C9.53951 20.2666 10.4946 21.2217 10.4946 22.4V26.6666C10.4946 27.8448 9.53951 28.7999 8.3613 28.7999H4.09464C2.91643 28.7999 1.9613 27.8448 1.9613 26.6666V22.4C1.9613 21.2217 2.91643 20.2666 4.09464 20.2666Z" stroke="black" stroke-width="2"/>
</svg>
