<svg width="25" height="24" viewBox="0 0 25 24" fill="none" xmlns="http://www.w3.org/2000/svg">
<g clip-path="url(#clip0_748_1424)">
<path d="M12.8947 2.16094C16.1009 2.16094 16.4806 2.175 17.7415 2.23125C18.9134 2.28281 19.5462 2.47969 19.9681 2.64375C20.5259 2.85938 20.929 3.12188 21.3462 3.53906C21.7681 3.96094 22.0259 4.35938 22.2415 4.91719C22.4056 5.33906 22.6025 5.97656 22.654 7.14375C22.7103 8.40937 22.7243 8.78906 22.7243 11.9906C22.7243 15.1969 22.7103 15.5766 22.654 16.8375C22.6025 18.0094 22.4056 18.6422 22.2415 19.0641C22.0259 19.6219 21.7634 20.025 21.3462 20.4422C20.9243 20.8641 20.5259 21.1219 19.9681 21.3375C19.5462 21.5016 18.9087 21.6984 17.7415 21.75C16.4759 21.8063 16.0962 21.8203 12.8947 21.8203C9.6884 21.8203 9.30872 21.8063 8.04778 21.75C6.8759 21.6984 6.24309 21.5016 5.82122 21.3375C5.2634 21.1219 4.86028 20.8594 4.44309 20.4422C4.02122 20.0203 3.7634 19.6219 3.54778 19.0641C3.38372 18.6422 3.18684 18.0047 3.13528 16.8375C3.07903 15.5719 3.06497 15.1922 3.06497 11.9906C3.06497 8.78438 3.07903 8.40469 3.13528 7.14375C3.18684 5.97187 3.38372 5.33906 3.54778 4.91719C3.7634 4.35938 4.0259 3.95625 4.44309 3.53906C4.86497 3.11719 5.2634 2.85938 5.82122 2.64375C6.24309 2.47969 6.88059 2.28281 8.04778 2.23125C9.30872 2.175 9.6884 2.16094 12.8947 2.16094ZM12.8947 0C9.63684 0 9.22903 0.0140625 7.94934 0.0703125C6.67434 0.126563 5.79778 0.332812 5.0384 0.628125C4.24622 0.9375 3.5759 1.34531 2.91028 2.01562C2.23997 2.68125 1.83215 3.35156 1.52278 4.13906C1.22747 4.90313 1.02122 5.775 0.964966 7.05C0.908716 8.33437 0.894653 8.74219 0.894653 12C0.894653 15.2578 0.908716 15.6656 0.964966 16.9453C1.02122 18.2203 1.22747 19.0969 1.52278 19.8563C1.83215 20.6484 2.23997 21.3188 2.91028 21.9844C3.5759 22.65 4.24622 23.0625 5.03372 23.3672C5.79778 23.6625 6.66965 23.8687 7.94465 23.925C9.22434 23.9812 9.63215 23.9953 12.89 23.9953C16.1478 23.9953 16.5556 23.9812 17.8353 23.925C19.1103 23.8687 19.9868 23.6625 20.7462 23.3672C21.5337 23.0625 22.204 22.65 22.8697 21.9844C23.5353 21.3188 23.9478 20.6484 24.2525 19.8609C24.5478 19.0969 24.754 18.225 24.8103 16.95C24.8665 15.6703 24.8806 15.2625 24.8806 12.0047C24.8806 8.74688 24.8665 8.33906 24.8103 7.05938C24.754 5.78438 24.5478 4.90781 24.2525 4.14844C23.9572 3.35156 23.5493 2.68125 22.879 2.01562C22.2134 1.35 21.5431 0.9375 20.7556 0.632812C19.9915 0.3375 19.1197 0.13125 17.8447 0.075C16.5603 0.0140625 16.1525 0 12.8947 0Z" fill="#000100"/>
<path d="M12.8947 5.83594C9.49153 5.83594 6.73059 8.59688 6.73059 12C6.73059 15.4031 9.49153 18.1641 12.8947 18.1641C16.2978 18.1641 19.0587 15.4031 19.0587 12C19.0587 8.59688 16.2978 5.83594 12.8947 5.83594ZM12.8947 15.9984C10.6868 15.9984 8.89622 14.2078 8.89622 12C8.89622 9.79219 10.6868 8.00156 12.8947 8.00156C15.1025 8.00156 16.8931 9.79219 16.8931 12C16.8931 14.2078 15.1025 15.9984 12.8947 15.9984Z" fill="#000100"/>
<path d="M20.7415 5.59226C20.7415 6.38914 20.0947 7.03133 19.3025 7.03133C18.5056 7.03133 17.8634 6.38445 17.8634 5.59226C17.8634 4.79539 18.5103 4.1532 19.3025 4.1532C20.0947 4.1532 20.7415 4.80007 20.7415 5.59226Z" fill="#000100"/>
</g>
<defs>
<clipPath id="clip0_748_1424">
<rect width="24" height="24" fill="white" transform="translate(0.894653)"/>
</clipPath>
</defs>
</svg>
