<svg width="25" height="24" viewBox="0 0 25 24" fill="none" xmlns="http://www.w3.org/2000/svg">
<path d="M3.20235 22H7.35619V8.61539H3.20235V22ZM5.27927 2C3.97158 2 2.89465 3.07692 2.89465 4.38462C2.89465 5.69231 3.97158 6.76923 5.27927 6.76923C6.58696 6.76923 7.66388 5.69231 7.66388 4.38462C7.66388 3.07692 6.58696 2 5.27927 2ZM17.8947 8.30769C15.8947 8.30769 14.51 9.38462 13.9716 10.4615H13.8947V8.61539H9.89465V22H14.0485V15.3846C14.0485 13.6154 14.3562 11.9231 16.51 11.9231C18.6639 11.9231 18.6639 13.9231 18.6639 15.4615V22H22.8947V14.6923C22.8947 11.0769 22.1254 8.30769 17.8947 8.30769Z" fill="black"/>
</svg>
