<svg width="33" height="32" viewBox="0 0 33 32" fill="none" xmlns="http://www.w3.org/2000/svg">
<path d="M11.2946 18.6L10.6946 17.8L9.09464 19L9.69464 19.8L11.2946 18.6ZM24.0946 19.8L24.6946 19L23.0946 17.8L22.4946 18.6L24.0946 19.8ZM16.8946 30.9333V29.9333C9.19947 29.9333 2.9613 23.6952 2.9613 16H1.9613H0.961304C0.961304 24.7997 8.0949 31.9333 16.8946 31.9333V30.9333ZM31.828 16H30.828C30.828 23.6952 24.5898 29.9333 16.8946 29.9333V30.9333V31.9333C25.6944 31.9333 32.828 24.7997 32.828 16H31.828ZM16.8946 1.06665V2.06665C24.5898 2.06665 30.828 8.30482 30.828 16H31.828H32.828C32.828 7.20025 25.6944 0.0666504 16.8946 0.0666504V1.06665ZM16.8946 1.06665V0.0666504C8.0949 0.0666504 0.961304 7.20025 0.961304 16H1.9613H2.9613C2.9613 8.30482 9.19947 2.06665 16.8946 2.06665V1.06665ZM9.42797 11.7333V12.7333H11.5613V11.7333V10.7333H9.42797V11.7333ZM22.228 11.7333V12.7333H24.3613V11.7333V10.7333H22.228V11.7333ZM23.2946 19.2L22.4946 18.6C19.6946 22.3333 14.0946 22.3333 11.2946 18.6L10.4946 19.2L9.69464 19.8C13.2946 24.6 20.4946 24.6 24.0946 19.8L23.2946 19.2Z" fill="black"/>
</svg>
