<svg width="33" height="32" viewBox="0 0 33 32" fill="none" xmlns="http://www.w3.org/2000/svg">
<path d="M19.5613 2.1333H14.228C12.7552 2.1333 11.5613 3.32721 11.5613 4.79997V10.1333C11.5613 11.6061 12.7552 12.8 14.228 12.8H19.5613C21.0341 12.8 22.228 11.6061 22.228 10.1333V4.79997C22.228 3.32721 21.0341 2.1333 19.5613 2.1333Z" stroke="black" stroke-width="2"/>
<path d="M16.8947 12.8V16M25.428 19.2V16H8.36133V19.2" stroke="black" stroke-width="2" stroke-linecap="round" stroke-linejoin="round"/>
<path d="M11.028 19.2H5.69468C4.22192 19.2 3.02802 20.3939 3.02802 21.8666V27.1999C3.02802 28.6727 4.22192 29.8666 5.69468 29.8666H11.028C12.5008 29.8666 13.6947 28.6727 13.6947 27.1999V21.8666C13.6947 20.3939 12.5008 19.2 11.028 19.2Z" stroke="black" stroke-width="2"/>
<path d="M28.0947 19.2H22.7613C21.2886 19.2 20.0947 20.3939 20.0947 21.8666V27.1999C20.0947 28.6727 21.2886 29.8666 22.7613 29.8666H28.0947C29.5674 29.8666 30.7613 28.6727 30.7613 27.1999V21.8666C30.7613 20.3939 29.5674 19.2 28.0947 19.2Z" stroke="black" stroke-width="2"/>
</svg>
