<svg width="25" height="24" viewBox="0 0 25 24" fill="none" xmlns="http://www.w3.org/2000/svg">
<path d="M14.8947 1.59998H10.8947C9.79008 1.59998 8.89465 2.49541 8.89465 3.59998V7.59998C8.89465 8.70455 9.79008 9.59998 10.8947 9.59998H14.8947C15.9992 9.59998 16.8947 8.70455 16.8947 7.59998V3.59998C16.8947 2.49541 15.9992 1.59998 14.8947 1.59998Z" stroke="black"/>
<path d="M12.8947 9.59998V12M19.2947 14.4V12H6.49466V14.4" stroke="black" stroke-linecap="round" stroke-linejoin="round"/>
<path d="M8.49466 14.4H4.49466C3.39009 14.4 2.49466 15.2955 2.49466 16.4V20.4C2.49466 21.5046 3.39009 22.4 4.49466 22.4H8.49466C9.59923 22.4 10.4947 21.5046 10.4947 20.4V16.4C10.4947 15.2955 9.59923 14.4 8.49466 14.4Z" stroke="black"/>
<path d="M21.2946 14.4H17.2946C16.1901 14.4 15.2946 15.2955 15.2946 16.4V20.4C15.2946 21.5046 16.1901 22.4 17.2946 22.4H21.2946C22.3992 22.4 23.2946 21.5046 23.2946 20.4V16.4C23.2946 15.2955 22.3992 14.4 21.2946 14.4Z" stroke="black"/>
</svg>
